<mxfile host="app.diagrams.net" modified="2024-03-20T06:47:44.484Z" agent="Mozilla/5.0 (Macintosh; Intel Mac OS X 10_15_7) AppleWebKit/537.36 (KHTML, like Gecko) Chrome/122.0.0.0 Safari/537.36" version="24.0.7" etag="OLZNFvxTDCAabnD0y_C9" type="github">
  <diagram name="第 1 页" id="390UgbP81oaPswoIAiBv">
    <mxGraphModel>
      <root>
        <mxCell id="0" />
        <mxCell id="1" parent="0" />
      </root>
    </mxGraphModel>
  </diagram>
</mxfile>
